<svg width="30" height="30" viewBox="0 0 30 30" fill="none" xmlns="http://www.w3.org/2000/svg">
<path d="M28.188 20.376C26.748 19.674 20.346 18.555 20.346 18.555L17.646 21.255C13.644 19.899 10.194 15.864 8.56799 12.24L11.691 9.05099C11.691 9.05099 9.97799 2.40599 9.11999 1.33799C8.45399 0.509985 7.57499 0.182985 6.46799 0.263985C5.37299 0.344985 0.998984 1.24499 0.365984 6.28499C-0.264016 11.322 3.68398 17.256 8.11199 21.936C12.54 26.619 18.72 29.79 22.917 29.748C27.114 29.706 29.442 25.773 29.652 23.988C29.85 22.329 29.436 20.982 28.188 20.376ZM28.287 24.183C28.005 25.236 26.07 28.737 22.104 28.413C18.138 28.089 13.524 25.374 8.73599 20.727C3.94499 16.08 1.27798 10.005 1.73398 6.41399C2.14198 3.18599 5.03998 1.98299 5.83498 1.79399C6.72898 1.58399 7.62599 1.69499 8.14499 2.37899C8.66699 3.06299 10.164 8.69099 10.164 8.69099L7.07399 11.814C8.93999 17.01 13.323 21.261 17.976 22.779L20.808 19.98C20.808 19.98 27.045 21.099 27.771 21.639C28.335 22.068 28.569 23.13 28.287 24.183Z" fill="#FF4F4F"/>
</svg>
